<?xml version="1.0" encoding="UTF-8" standalone="no"?>
<!-- Created with Inkscape (http://www.inkscape.org/) -->

<svg
   xmlns:dc="http://purl.org/dc/elements/1.1/"
   xmlns:cc="http://creativecommons.org/ns#"
   xmlns:rdf="http://www.w3.org/1999/02/22-rdf-syntax-ns#"
   xmlns:svg="http://www.w3.org/2000/svg"
   xmlns="http://www.w3.org/2000/svg"
   xmlns:sodipodi="http://sodipodi.sourceforge.net/DTD/sodipodi-0.dtd"
   xmlns:inkscape="http://www.inkscape.org/namespaces/inkscape"
   width="322.68335mm"
   height="322.68335mm"
   viewBox="0 0 322.68335 322.68335"
   version="1.1"
   id="svg1045"
   inkscape:version="0.92.5 (2060ec1f9f, 2020-04-08)"
   sodipodi:docname="complete.svg">
  <defs
     id="defs1039" />
  <sodipodi:namedview
     id="base"
     pagecolor="#ffffff"
     bordercolor="#666666"
     borderopacity="1.0"
     inkscape:pageopacity="0.0"
     inkscape:pageshadow="2"
     inkscape:zoom="1.4142136"
     inkscape:cx="3.8773427"
     inkscape:cy="97.168803"
     inkscape:document-units="mm"
     inkscape:current-layer="layer1"
     showgrid="false"
     fit-margin-top="10"
     fit-margin-bottom="10"
     fit-margin-right="10"
     fit-margin-left="10"
     inkscape:window-width="1920"
     inkscape:window-height="997"
     inkscape:window-x="0"
     inkscape:window-y="28"
     inkscape:window-maximized="1"
     inkscape:snap-bbox="true"
     inkscape:snap-center="true" />
  <metadata
     id="metadata1042">
    <rdf:RDF>
      <cc:Work
         rdf:about="">
        <dc:format>image/svg+xml</dc:format>
        <dc:type
           rdf:resource="http://purl.org/dc/dcmitype/StillImage" />
        <dc:title></dc:title>
      </cc:Work>
    </rdf:RDF>
  </metadata>
  <g
     inkscape:label="Layer 1"
     inkscape:groupmode="layer"
     id="layer1"
     transform="translate(-48.170533,136.59794)">
    <g
       transform="matrix(4,0,0,4,-839.39995,-1746.9487)"
       id="g2246">
      <rect
         y="405.88144"
         x="225.18637"
         height="74.083336"
         width="74.083336"
         id="rect815-2-3-6"
         style="opacity:1;fill:#dcdcdc;fill-opacity:1;stroke:#dcdcdc;stroke-width:1.58749998;stroke-linejoin:miter;stroke-miterlimit:4;stroke-dasharray:none;stroke-opacity:1" />
      <g
         id="flowRoot907-4-5"
         style="font-style:normal;font-variant:normal;font-weight:normal;font-stretch:normal;font-size:8px;line-height:1.25;font-family:'Noto Sans';-inkscape-font-specification:'Noto Sans';letter-spacing:0px;word-spacing:0px;fill:#ffffff;fill-opacity:1;stroke:#ffffff"
         transform="matrix(0.26458333,0,0,0.26458333,239.07131,269.96806)"
         aria-label="✔">
        <path
           inkscape:connector-curvature="0"
           id="path986"
           style="font-style:normal;font-variant:normal;font-weight:900;font-stretch:normal;font-size:192px;font-family:'Noto Sans';-inkscape-font-specification:'Noto Sans Heavy';letter-spacing:-18.79000092px;fill:#ffffff;stroke:#ffffff"
           d="m 13.177734,650.3418 q 0.75,-3 3.75,-8.25 3.75,-5.25 6.75,-9 7.5,-6 14.25,-6 9.75,0 9.75,9 1.5,12 5.25,27.75 2.25,7.5 6.75,7.5 3,0 5.25,-3.75 9.75,-9 20.25,-19.5 16.499996,-15.75 22.499996,-23.25 7.5,-9 20.25,-21 12.75,-11.25 19.5,-15.75 6,-3.75 10.5,-3 4.5,0.75 3.75,6.75 -0.75,6 0,12 0.75,4.5 0,5.25 -15,18 -24,26.25 -21.75,25.5 -29.25,31.5 -28.499996,27.75 -49.499996,48 -7.5,6.75 -14.25,7.5 -9,0.75 -17.25,-6.75 -9.75,-8.25 -10.5,-19.5 -0.75,-12.75 -2.25,-18.75 -2.25,-10.5 -1.5,-27 z" />
      </g>
    </g>
  </g>
</svg>
