<?xml version="1.0" encoding="UTF-8" standalone="no"?>
<!-- Created with Inkscape (http://www.inkscape.org/) -->

<svg
   xmlns:dc="http://purl.org/dc/elements/1.1/"
   xmlns:cc="http://creativecommons.org/ns#"
   xmlns:rdf="http://www.w3.org/1999/02/22-rdf-syntax-ns#"
   xmlns:svg="http://www.w3.org/2000/svg"
   xmlns="http://www.w3.org/2000/svg"
   xmlns:sodipodi="http://sodipodi.sourceforge.net/DTD/sodipodi-0.dtd"
   xmlns:inkscape="http://www.inkscape.org/namespaces/inkscape"
   width="322.68335mm"
   height="322.68335mm"
   viewBox="0 0 322.68335 322.68335"
   version="1.1"
   id="svg1045"
   inkscape:version="0.92.5 (2060ec1f9f, 2020-04-08)"
   sodipodi:docname="general.svg">
  <defs
     id="defs1039" />
  <sodipodi:namedview
     id="base"
     pagecolor="#ffffff"
     bordercolor="#666666"
     borderopacity="1.0"
     inkscape:pageopacity="0.0"
     inkscape:pageshadow="2"
     inkscape:zoom="0.98994949"
     inkscape:cx="-262.70464"
     inkscape:cy="252.68746"
     inkscape:document-units="mm"
     inkscape:current-layer="layer1"
     showgrid="false"
     fit-margin-top="10"
     fit-margin-bottom="10"
     fit-margin-right="10"
     fit-margin-left="10"
     inkscape:window-width="1920"
     inkscape:window-height="997"
     inkscape:window-x="0"
     inkscape:window-y="28"
     inkscape:window-maximized="1"
     inkscape:snap-bbox="true"
     inkscape:snap-center="true" />
  <metadata
     id="metadata1042">
    <rdf:RDF>
      <cc:Work
         rdf:about="">
        <dc:format>image/svg+xml</dc:format>
        <dc:type
           rdf:resource="http://purl.org/dc/dcmitype/StillImage" />
        <dc:title></dc:title>
      </cc:Work>
    </rdf:RDF>
  </metadata>
  <g
     inkscape:label="Layer 1"
     inkscape:groupmode="layer"
     id="layer1"
     transform="translate(-48.170538,136.59792)">
    <g
       transform="matrix(4,0,0,4,-857.84361,-613.52485)"
       id="g1720">
      <rect
         y="122.52548"
         x="229.79729"
         height="74.083336"
         width="74.083336"
         id="rect815-2-3-2"
         style="opacity:1;fill:#dcdcdc;fill-opacity:1;stroke:#dcdcdc;stroke-width:1.58749998;stroke-linejoin:miter;stroke-miterlimit:4;stroke-dasharray:none;stroke-opacity:1" />
      <g
         id="flowRoot907-3"
         style="font-style:normal;font-variant:normal;font-weight:normal;font-stretch:normal;font-size:8px;line-height:1.25;font-family:'Noto Sans';-inkscape-font-specification:'Noto Sans';letter-spacing:0px;word-spacing:0px;fill:#ffffff;fill-opacity:1;stroke:#ffffff"
         transform="matrix(0.26458333,0,0,0.26458333,251.27246,-9.0276085)"
         aria-label="G">
        <path
           inkscape:connector-curvature="0"
           id="path956"
           style="font-style:normal;font-variant:normal;font-weight:900;font-stretch:normal;font-size:192px;font-family:'Noto Sans';-inkscape-font-specification:'Noto Sans Heavy';fill:#ffffff;stroke:#ffffff"
           d="m 61.315734,625.53183 h 59.135996 v 73.92 q -10.752,3.648 -24.383996,5.952 -13.632,2.304 -28.608,2.304 -19.776,0 -34.752,-7.68 -14.784,-7.68 -23.2319996,-23.424 -8.256,-15.744 -8.256,-39.744 0,-21.504 8.256,-37.248 8.2559996,-15.744 24.1919996,-24.192 16.128,-8.64 39.552,-8.64 12.864,0 24.384,2.496 11.519996,2.496 19.967996,6.144 l -11.712,28.992 q -7.295996,-3.648 -15.359996,-5.376 -8.064,-1.92 -17.088,-1.92 -12.288,0 -19.776,5.568 -7.488,5.568 -10.944,14.784 -3.264,9.216 -3.264,20.352 0,19.2 8.064,29.376 8.064,9.984 23.04,9.984 3.264,0 7.872,-0.384 4.8,-0.576 7.296,-1.152 v -21.504 h -24.384 z" />
      </g>
    </g>
  </g>
</svg>
