<?xml version="1.0" encoding="UTF-8" standalone="no"?>
<!-- Created with Inkscape (http://www.inkscape.org/) -->

<svg
   xmlns:dc="http://purl.org/dc/elements/1.1/"
   xmlns:cc="http://creativecommons.org/ns#"
   xmlns:rdf="http://www.w3.org/1999/02/22-rdf-syntax-ns#"
   xmlns:svg="http://www.w3.org/2000/svg"
   xmlns="http://www.w3.org/2000/svg"
   xmlns:sodipodi="http://sodipodi.sourceforge.net/DTD/sodipodi-0.dtd"
   xmlns:inkscape="http://www.inkscape.org/namespaces/inkscape"
   width="956.21704mm"
   height="806.54822mm"
   viewBox="0 0 956.21704 806.54822"
   version="1.1"
   id="svg949"
   inkscape:version="0.92.5 (2060ec1f9f, 2020-04-08)"
   sodipodi:docname="logo.svg">
  <defs
     id="defs943" />
  <sodipodi:namedview
     id="base"
     pagecolor="#ffffff"
     bordercolor="#666666"
     borderopacity="1.0"
     inkscape:pageopacity="0.0"
     inkscape:pageshadow="2"
     inkscape:zoom="0.0875"
     inkscape:cx="516.34845"
     inkscape:cy="1881.6016"
     inkscape:document-units="mm"
     inkscape:current-layer="layer1"
     showgrid="false"
     fit-margin-top="0"
     fit-margin-left="0"
     fit-margin-right="0"
     fit-margin-bottom="0"
     inkscape:window-width="1920"
     inkscape:window-height="997"
     inkscape:window-x="0"
     inkscape:window-y="28"
     inkscape:window-maximized="1" />
  <metadata
     id="metadata946">
    <rdf:RDF>
      <cc:Work
         rdf:about="">
        <dc:format>image/svg+xml</dc:format>
        <dc:type
           rdf:resource="http://purl.org/dc/dcmitype/StillImage" />
        <dc:title></dc:title>
      </cc:Work>
    </rdf:RDF>
  </metadata>
  <g
     inkscape:label="Layer 1"
     inkscape:groupmode="layer"
     id="layer1"
     transform="translate(155.89953,453.05402)">
    <g
       id="g874"
       transform="matrix(2,0,0,2,155.89954,-353.49419)">
      <g
         id="flowRoot4604"
         style="font-style:normal;font-variant:normal;font-weight:normal;font-stretch:normal;font-size:8px;line-height:1.25;font-family:'Noto Sans';-inkscape-font-specification:'Noto Sans';letter-spacing:0px;word-spacing:0px;fill:#b3b3b3;fill-opacity:1;stroke:none"
         transform="matrix(1.2771732,0,0,1.2771732,2202.9188,-767.93479)"
         aria-label="📖">
        <path
           inkscape:connector-curvature="0"
           id="path4625"
           style="font-style:normal;font-variant:normal;font-weight:bold;font-stretch:normal;font-size:333.33334351px;font-family:'Noto Sans';-inkscape-font-specification:'Noto Sans Bold';fill:#b3b3b3"
           d="m -1509.666,574.01905 h 37.1094 v 292.31772 h -151.3672 q -7.3242,6.34766 -16.7643,8.95182 -9.4401,2.76693 -19.043,2.76693 -9.6029,0 -19.043,-2.76693 -9.4401,-2.60416 -16.7643,-8.95182 h -151.3672 V 574.01905 h 37.1094 l 11.7187,-11.71875 h 103.1901 q 9.6029,0 18.392,3.09245 8.9518,2.92969 16.7643,8.6263 7.8125,-5.69661 16.6016,-8.6263 8.9518,-3.09245 18.5546,-3.09245 h 103.1901 z m -21.3216,11.55599 h -93.5873 q -6.5104,0 -12.6953,2.44141 -6.0221,2.27865 -10.7422,6.51042 V 816.8576 q 3.418,-3.09245 7.3243,-4.88281 4.069,-1.95313 8.3007,-2.92969 4.3946,-0.97656 8.7891,-1.30208 4.5573,-0.32552 8.9518,-0.32552 20.9961,0 41.8295,0.16276 20.8333,0.16276 41.8294,0.32552 z m -163.8998,0 h -93.5872 v 222.33074 q 20.345,0 40.5273,-0.32552 20.3451,-0.48828 40.6901,-0.48828 4.7201,0 9.4401,0.32552 4.8829,0.32552 9.4402,1.30208 4.72,0.97656 8.9518,2.92969 4.2317,1.95312 7.9752,5.20833 V 594.52687 q -4.72,-4.23177 -10.9049,-6.51042 -6.0221,-2.44141 -12.5326,-2.44141 z m 198.8933,257.48699 V 597.29379 h -23.4375 l 11.7187,11.71875 v 222.33074 h -134.7656 q -2.9297,0 -6.0221,0.32552 -2.9297,0.32552 -5.3711,1.30208 -2.4414,1.13933 -4.069,3.25521 -1.6277,2.27865 -1.7904,6.02214 -0.3255,-3.74349 -1.9531,-6.02214 -1.6276,-2.11588 -4.069,-3.25521 -2.4415,-0.97656 -5.5339,-1.30208 -2.9297,-0.32552 -6.0221,-0.32552 h -134.4401 V 609.01254 l 11.5559,-11.71875 h -23.2747 v 245.76824 h 140.2995 q 0,3.41797 2.6042,5.69662 2.7669,2.27864 6.5104,3.58072 3.7435,1.46485 7.6497,1.95313 4.069,0.48828 6.6732,0.48828 2.4414,0 6.3476,-0.65104 4.0691,-0.48828 7.8125,-1.95313 3.9063,-1.30208 6.5105,-3.58073 2.7669,-2.11588 2.7669,-5.53385 z" />
      </g>
      <g
         id="flowRoot896"
         style="font-style:normal;font-variant:normal;font-weight:normal;font-stretch:normal;font-size:8px;line-height:1.25;font-family:'Noto Sans';-inkscape-font-specification:'Noto Sans';letter-spacing:0px;word-spacing:0px;fill:#000000;fill-opacity:1;stroke:none"
         transform="matrix(0.71024428,0,0,0.71024428,2158.9997,-638.05462)"
         aria-label="Ao3">
        <path
           id="path841"
           style="font-style:normal;font-variant:normal;font-weight:900;font-stretch:normal;font-size:192px;font-family:'Noto Sans';-inkscape-font-specification:'Noto Sans Heavy'"
           d="m -3021.12,1085.7878 -6.72,-25.728 h -44.544 l -6.912,25.728 H -3120 l 44.736,-137.66397 h 49.344 l 45.312,137.66397 z m -14.4,-56.064 -5.952,-22.464 q -0.96,-3.648 -2.688,-10.36797 -1.728,-6.912 -3.456,-14.016 -1.728,-7.296 -2.688,-12.096 -0.96,4.8 -2.496,11.712 -1.536,6.72 -3.264,13.632 -1.536,6.71997 -2.688,11.13597 l -5.952,22.464 z"
           inkscape:connector-curvature="0" />
        <path
           id="path843"
           style="font-style:normal;font-variant:normal;font-weight:900;font-stretch:normal;font-size:192px;font-family:'Noto Sans';-inkscape-font-specification:'Noto Sans Heavy'"
           d="m -2866.452,1032.4118 q 0,26.688 -14.208,41.088 -14.208,14.208 -38.976,14.208 -15.36,0 -27.264,-6.336 -11.904,-6.528 -18.816,-18.816 -6.72,-12.48 -6.72,-30.144 0,-26.304 14.208,-40.51197 14.208,-14.208 39.168,-14.208 15.36,0 27.072,6.336 11.904,6.336 18.624,18.62397 6.912,12.096 6.912,29.76 z m -68.736,0 q 0,13.632 3.648,20.928 3.648,7.104 12.288,7.104 8.448,0 11.904,-7.104 3.648,-7.296 3.648,-20.928 0,-13.44 -3.648,-20.352 -3.456,-7.104 -12.096,-7.104 -8.448,0 -12.096,7.104 -3.648,6.912 -3.648,20.352 z"
           inkscape:connector-curvature="0" />
        <path
           id="path845"
           style="font-style:normal;font-variant:normal;font-weight:900;font-stretch:normal;font-size:192px;font-family:'Noto Sans';-inkscape-font-specification:'Noto Sans Heavy'"
           d="m -2757.642,978.45983 q 0,9.792 -4.224,16.896 -4.224,6.91197 -11.136,11.51997 -6.912,4.416 -14.976,6.72 v 0.576 q 16.512,2.112 25.344,9.984 9.024,7.872 9.024,22.464 0,11.136 -6.144,20.544 -5.952,9.408 -18.624,14.976 -12.672,5.568 -32.448,5.568 -13.248,0 -22.656,-1.92 -9.408,-2.112 -18.24,-5.568 v -30.72 q 8.832,4.608 18.24,6.912 9.408,2.112 17.28,2.112 13.632,0 18.432,-3.84 4.992,-3.84 4.992,-10.368 0,-4.608 -2.496,-7.872 -2.304,-3.264 -8.64,-4.992 -6.336,-1.92 -18.048,-1.92 h -8.448 v -27.84 h 8.64 q 15.744,0 21.888,-4.03197 6.336,-4.032 6.336,-10.368 0,-5.568 -4.224,-8.064 -4.224,-2.688 -11.136,-2.688 -6.336,0 -11.712,1.728 -5.376,1.728 -9.408,3.84 -4.032,1.92 -6.144,3.264 l -15.36,-24.768 q 8.448,-5.76 19.392,-9.792 11.136,-4.032 28.992,-4.032 21.12,0 33.216,8.448 12.288,8.448 12.288,23.232 z"
           inkscape:connector-curvature="0" />
      </g>
      <g
         id="flowRoot904"
         style="font-style:normal;font-variant:normal;font-weight:normal;font-stretch:normal;font-size:8px;line-height:1.25;font-family:'Noto Sans';-inkscape-font-specification:'Noto Sans';letter-spacing:0px;word-spacing:0px;fill:#000000;fill-opacity:1;stroke:none"
         transform="matrix(0.37842807,0,0,0.37842807,1146.1164,-440.36931)"
         aria-label="Reader">
        <path
           id="path848"
           style="font-style:normal;font-variant:normal;font-weight:bold;font-stretch:normal;font-size:192px;font-family:'Noto Sans';-inkscape-font-specification:'Noto Sans Bold';letter-spacing:6.66000414px"
           d="m -3125.1152,1615.2808 h 9.375 q 13.7812,0 20.3437,-4.5937 6.5625,-4.5938 6.5625,-14.4375 0,-9.75 -6.75,-13.875 -6.6562,-4.125 -20.7187,-4.125 h -8.8125 z m 0,23.625 v 52.5938 h -29.0625 v -137.0625 h 39.9375 q 27.9375,0 41.3437,10.2187 13.4063,10.125 13.4063,30.8438 0,12.0937 -6.6563,21.5625 -6.6562,9.375 -18.8437,14.7187 l 40.3125,59.7188 h -32.25 l -32.7188,-52.5938 z"
           inkscape:connector-curvature="0" />
        <path
           id="path850"
           style="font-style:normal;font-variant:normal;font-weight:bold;font-stretch:normal;font-size:192px;font-family:'Noto Sans';-inkscape-font-specification:'Noto Sans Bold';letter-spacing:6.66000414px"
           d="m -2979.6115,1605.0621 q -9.0937,0 -14.25,5.8125 -5.1562,5.7187 -5.9062,16.3125 h 40.125 q -0.1875,-10.5938 -5.5313,-16.3125 -5.3437,-5.8125 -14.4375,-5.8125 z m 4.0313,88.3125 q -25.3125,0 -39.5625,-13.9688 -14.25,-13.9687 -14.25,-39.5625 0,-26.3437 13.125,-40.6875 13.2187,-14.4375 36.4687,-14.4375 22.2188,0 34.5938,12.6563 12.375,12.6562 12.375,34.9687 v 13.875 h -67.5938 q 0.4688,12.1875 7.2188,19.0313 6.75,6.8437 18.9375,6.8437 9.4687,0 17.9062,-1.9687 8.4375,-1.9688 17.625,-6.2813 v 22.125 q -7.5,3.75 -16.0312,5.5313 -8.5313,1.875 -20.8125,1.875 z"
           inkscape:connector-curvature="0" />
        <path
           id="path852"
           style="font-style:normal;font-variant:normal;font-weight:bold;font-stretch:normal;font-size:192px;font-family:'Noto Sans';-inkscape-font-specification:'Noto Sans Bold';letter-spacing:6.66000414px"
           d="m -2836.1702,1691.4996 -5.5313,-14.25 h -0.75 q -7.2187,9.0937 -14.9062,12.6562 -7.5938,3.4688 -19.875,3.4688 -15.0938,0 -23.8125,-8.625 -8.625,-8.625 -8.625,-24.5625 0,-16.6875 11.625,-24.5625 11.7187,-7.9688 35.25,-8.8125 l 18.1875,-0.5625 v -4.5938 q 0,-15.9375 -16.3125,-15.9375 -12.5625,0 -29.5313,7.5938 l -9.4687,-19.3125 q 18.0937,-9.4688 40.125,-9.4688 21.0937,0 32.3437,9.1875 11.25,9.1875 11.25,27.9375 v 69.8438 z m -8.4375,-48.5625 -11.0625,0.375 q -12.4688,0.375 -18.5625,4.5 -6.0938,4.125 -6.0938,12.5625 0,12.0937 13.875,12.0937 9.9375,0 15.8438,-5.7187 6,-5.7188 6,-15.1875 z"
           inkscape:connector-curvature="0" />
        <path
           id="path854"
           style="font-style:normal;font-variant:normal;font-weight:bold;font-stretch:normal;font-size:192px;font-family:'Noto Sans';-inkscape-font-specification:'Noto Sans Bold';letter-spacing:6.66000414px"
           d="m -2747.0102,1693.3746 q -18.4688,0 -29.0625,-14.3438 -10.5,-14.3437 -10.5,-39.75 0,-25.7812 10.6875,-40.125 10.7812,-14.4375 29.625,-14.4375 19.7812,0 30.1875,15.375 h 0.9375 q -2.1563,-11.7187 -2.1563,-20.9062 v -33.5625 h 28.6875 v 145.875 h -21.9375 l -5.5312,-13.5938 h -1.2188 q -9.75,15.4688 -29.7187,15.4688 z m 10.0312,-22.7813 q 10.9688,0 16.0313,-6.375 5.1562,-6.375 5.625,-21.6562 v -3.0938 q 0,-16.875 -5.25,-24.1875 -5.1563,-7.3125 -16.875,-7.3125 -9.5625,0 -14.9063,8.1563 -5.25,8.0625 -5.25,23.5312 0,15.4688 5.3438,23.25 5.3437,7.6875 15.2812,7.6875 z"
           inkscape:connector-curvature="0" />
        <path
           id="path856"
           style="font-style:normal;font-variant:normal;font-weight:bold;font-stretch:normal;font-size:192px;font-family:'Noto Sans';-inkscape-font-specification:'Noto Sans Bold';letter-spacing:6.66000414px"
           d="m -2608.6315,1605.0621 q -9.0937,0 -14.25,5.8125 -5.1562,5.7187 -5.9062,16.3125 h 40.125 q -0.1875,-10.5938 -5.5313,-16.3125 -5.3437,-5.8125 -14.4375,-5.8125 z m 4.0313,88.3125 q -25.3125,0 -39.5625,-13.9688 -14.25,-13.9687 -14.25,-39.5625 0,-26.3437 13.125,-40.6875 13.2187,-14.4375 36.4687,-14.4375 22.2188,0 34.5938,12.6563 12.375,12.6562 12.375,34.9687 v 13.875 h -67.5938 q 0.4688,12.1875 7.2188,19.0313 6.75,6.8437 18.9375,6.8437 9.4687,0 17.9062,-1.9687 8.4375,-1.9688 17.625,-6.2813 v 22.125 q -7.5,3.75 -16.0312,5.5313 -8.5313,1.875 -20.8125,1.875 z"
           inkscape:connector-curvature="0" />
        <path
           id="path858"
           style="font-style:normal;font-variant:normal;font-weight:bold;font-stretch:normal;font-size:192px;font-family:'Noto Sans';-inkscape-font-specification:'Noto Sans Bold';letter-spacing:6.66000414px"
           d="m -2473.2527,1584.7183 q 5.8125,0 9.6563,0.8438 l -2.1563,26.8125 q -3.4687,-0.9375 -8.4375,-0.9375 -13.6875,0 -21.375,7.0312 -7.5937,7.0313 -7.5937,19.6875 v 53.3438 h -28.5938 v -104.8125 h 21.6563 l 4.2187,17.625 h 1.4063 q 4.875,-8.8125 13.125,-14.1563 8.3437,-5.4375 18.0937,-5.4375 z"
           inkscape:connector-curvature="0" />
      </g>
    </g>
  </g>
</svg>
