<?xml version="1.0" encoding="UTF-8" standalone="no"?>
<!-- Created with Inkscape (http://www.inkscape.org/) -->

<svg
   xmlns:dc="http://purl.org/dc/elements/1.1/"
   xmlns:cc="http://creativecommons.org/ns#"
   xmlns:rdf="http://www.w3.org/1999/02/22-rdf-syntax-ns#"
   xmlns:svg="http://www.w3.org/2000/svg"
   xmlns="http://www.w3.org/2000/svg"
   xmlns:sodipodi="http://sodipodi.sourceforge.net/DTD/sodipodi-0.dtd"
   xmlns:inkscape="http://www.inkscape.org/namespaces/inkscape"
   width="322.68335mm"
   height="322.68335mm"
   viewBox="0 0 322.68335 322.68335"
   version="1.1"
   id="svg1045"
   inkscape:version="0.92.5 (2060ec1f9f, 2020-04-08)"
   sodipodi:docname="chosenotto.svg">
  <defs
     id="defs1039" />
  <sodipodi:namedview
     id="base"
     pagecolor="#ffffff"
     bordercolor="#666666"
     borderopacity="1.0"
     inkscape:pageopacity="0.0"
     inkscape:pageshadow="2"
     inkscape:zoom="0.98994949"
     inkscape:cx="-262.70464"
     inkscape:cy="252.68744"
     inkscape:document-units="mm"
     inkscape:current-layer="layer1"
     showgrid="false"
     fit-margin-top="10"
     fit-margin-bottom="10"
     fit-margin-right="10"
     fit-margin-left="10"
     inkscape:window-width="1920"
     inkscape:window-height="997"
     inkscape:window-x="0"
     inkscape:window-y="28"
     inkscape:window-maximized="1"
     inkscape:snap-bbox="true"
     inkscape:snap-center="true" />
  <metadata
     id="metadata1042">
    <rdf:RDF>
      <cc:Work
         rdf:about="">
        <dc:format>image/svg+xml</dc:format>
        <dc:type
           rdf:resource="http://purl.org/dc/dcmitype/StillImage" />
        <dc:title></dc:title>
      </cc:Work>
    </rdf:RDF>
  </metadata>
  <g
     inkscape:label="Layer 1"
     inkscape:groupmode="layer"
     id="layer1"
     transform="translate(-48.170536,136.59793)">
    <g
       transform="matrix(4,0,0,4,-211.48619,-958.37123)"
       id="g1816">
      <rect
         y="208.73708"
         x="68.207932"
         height="74.083336"
         width="74.083336"
         id="rect815-2-36"
         style="opacity:1;fill:#808080;fill-opacity:1;stroke:#808080;stroke-width:1.58749998;stroke-linejoin:miter;stroke-miterlimit:4;stroke-dasharray:none;stroke-opacity:1" />
      <g
         id="flowRoot907-4"
         style="font-style:normal;font-variant:normal;font-weight:normal;font-stretch:normal;font-size:8px;line-height:1.25;font-family:'Noto Sans';-inkscape-font-specification:'Noto Sans';letter-spacing:0px;word-spacing:0px;fill:#ffffff;fill-opacity:1;stroke:#ffffff"
         transform="matrix(0.26458333,0,0,0.26458333,87.096078,77.123849)"
         aria-label="â‰">
        <path
           inkscape:connector-curvature="0"
           id="path962"
           style="font-style:normal;font-variant:normal;font-weight:900;font-stretch:normal;font-size:192px;font-family:'Noto Sans';-inkscape-font-specification:'Noto Sans Heavy';letter-spacing:-18.79000092px;fill:#ffffff;stroke:#ffffff"
           d="M 34.819734,657.40383 H 3.9077344 l -4.80000003,-88.704 H 39.619734 Z m -35.32799962,32.832 q 0,-9.984 5.76000002,-14.016 5.9519996,-4.032 14.0159996,-4.032 7.872,0 13.632,4.032 5.76,4.032 5.76,14.016 0,9.408 -5.76,13.632 -5.76,4.224 -13.632,4.224 -8.064,0 -14.0159996,-4.224 -5.76000002,-4.224 -5.76000002,-13.632 z m 72.76799962,-32.832 v -8.064 q 0,-8.64 3.456,-14.976 3.456,-6.528 13.632,-12.864 6.336,-4.032 9.408,-6.912 3.071996,-3.072 3.839996,-5.376 0.96,-2.496 0.96,-5.184 0,-3.84 -3.647996,-6.144 -3.456,-2.304 -9.216,-2.304 -14.016,0 -33.024,9.984 l -13.056,-25.536 q 10.56,-5.952 22.464,-9.6 12.096,-3.648 26.304,-3.648 21.311996,0 33.023996,9.408 11.712,9.408 11.712,24.768 0,11.136 -5.184,19.392 -5.184,8.256 -17.088,15.936 -8.448,5.376 -11.712,8.64 -3.072,3.264 -3.072,7.68 v 4.8 z m -4.032,32.832 q 0,-9.984 5.76,-14.016 5.76,-4.032 14.016,-4.032 7.872,0 13.631996,4.032 5.76,4.032 5.76,14.016 0,9.408 -5.76,13.632 -5.759996,4.224 -13.631996,4.224 -8.256,0 -14.016,-4.224 -5.76,-4.224 -5.76,-13.632 z" />
      </g>
    </g>
  </g>
</svg>
