<?xml version="1.0" encoding="UTF-8" standalone="no"?>
<svg
   xmlns:dc="http://purl.org/dc/elements/1.1/"
   xmlns:cc="http://creativecommons.org/ns#"
   xmlns:rdf="http://www.w3.org/1999/02/22-rdf-syntax-ns#"
   xmlns:svg="http://www.w3.org/2000/svg"
   xmlns="http://www.w3.org/2000/svg"
   xmlns:sodipodi="http://sodipodi.sourceforge.net/DTD/sodipodi-0.dtd"
   xmlns:inkscape="http://www.inkscape.org/namespaces/inkscape"
   version="1.1"
   width="24"
   height="24"
   viewBox="0 0 24 24"
   id="svg14"
   sodipodi:docname="cog-outline.svg"
   inkscape:version="0.92.5 (2060ec1f9f, 2020-04-08)">
  <metadata
     id="metadata20">
    <rdf:RDF>
      <cc:Work
         rdf:about="">
        <dc:format>image/svg+xml</dc:format>
        <dc:type
           rdf:resource="http://purl.org/dc/dcmitype/StillImage" />
      </cc:Work>
    </rdf:RDF>
  </metadata>
  <defs
     id="defs18" />
  <sodipodi:namedview
     pagecolor="#ffffff"
     bordercolor="#666666"
     borderopacity="1"
     objecttolerance="10"
     gridtolerance="10"
     guidetolerance="10"
     inkscape:pageopacity="0"
     inkscape:pageshadow="2"
     inkscape:window-width="1920"
     inkscape:window-height="997"
     id="namedview16"
     showgrid="false"
     inkscape:zoom="6.9532167"
     inkscape:cx="-50.351669"
     inkscape:cy="6.359058"
     inkscape:window-x="0"
     inkscape:window-y="28"
     inkscape:window-maximized="1"
     inkscape:current-layer="svg14" />
  <path
     d="m 12,8 c 2.209139,0 4,1.790861 4,4 0,2.209139 -1.790861,4 -4,4 C 9.790861,16 8,14.209139 8,12 8,9.790861 9.790861,8 12,8 m 0.03595,1.1011354 C 9.9965664,9.2809084 9.1977137,10.896442 9.2449538,12 c 0.071909,1.679842 1.2549772,2.826955 2.7910012,2.826955 1.104569,0 2.719091,-1.147113 2.755046,-2.826955 0.02364,-1.104316 -0.931386,-2.86291 -2.755046,-2.8988646 M 10,22 C 9.75,22 9.54,21.82 9.5,21.58 L 9.13,18.93 C 8.5,18.68 7.96,18.34 7.44,17.94 l -2.49,1.01 c -0.22,0.08 -0.49,0 -0.61,-0.22 l -2,-3.46 C 2.21,15.05 2.27,14.78 2.46,14.63 L 4.57,12.97 4.5,12 4.57,11 2.46,9.37 C 2.27,9.22 2.21,8.95 2.34,8.73 l 2,-3.46 C 4.46,5.05 4.73,4.96 4.95,5.05 l 2.49,1 C 7.96,5.66 8.5,5.32 9.13,5.07 L 9.5,2.42 C 9.54,2.18 9.75,2 10,2 h 4 c 0.25,0 0.46,0.18 0.5,0.42 l 0.37,2.65 c 0.63,0.25 1.17,0.59 1.69,0.98 l 2.49,-1 c 0.22,-0.09 0.49,0 0.61,0.22 l 2,3.46 c 0.13,0.22 0.07,0.49 -0.12,0.64 l -2.11,1.63 0.07,1 -0.07,1 2.11,1.63 c 0.19,0.15 0.25,0.42 0.12,0.64 l -2,3.46 c -0.12,0.22 -0.39,0.31 -0.61,0.22 l -2.49,-1 c -0.52,0.39 -1.06,0.73 -1.69,0.98 L 14.5,21.58 C 14.46,21.82 14.25,22 14,22 h -4 m 0.530908,-18.86291 -0.37,2.61 c -1.1999996,0.25 -1.9364084,0.6023634 -2.7064084,1.4923634 l -2.41,-1.04 L 3.6832717,8.65 l 2.11,1.55 c -0.4,1.17 -0.4359546,2.404046 -0.035955,3.564046 l -2.12,1.56 1.3971825,2.16291 2.43,-1.04 c 0.77,0.88 1.6761817,1.44809 2.8661818,1.68809 l 0.37,2.62 2.598638,-0.07191 0.37,-2.61 c 1.19,-0.25 2.455727,-0.710227 3.225727,-1.590227 l 2.142364,1.04 1.181454,-2.342683 -2.12,-1.55 c 0.4,-1.17 0.543818,-2.224272 0.143818,-3.394272 l 2.11,-1.5500004 -1.397182,-2.1629099 -2.41,1.04 c -0.77,-0.89 -1.758091,-1.5300001 -2.958091,-1.7700001 l -0.37,-2.62 z"
     id="path12"
     inkscape:connector-curvature="0"
     sodipodi:nodetypes="csssccssscccccccccccccccccccsscccccccccccccccccscccccccccccccccccccccccccc" />
</svg>
