<?xml version="1.0" encoding="UTF-8" standalone="no"?>
<!-- Created with Inkscape (http://www.inkscape.org/) -->

<svg
   xmlns:dc="http://purl.org/dc/elements/1.1/"
   xmlns:cc="http://creativecommons.org/ns#"
   xmlns:rdf="http://www.w3.org/1999/02/22-rdf-syntax-ns#"
   xmlns:svg="http://www.w3.org/2000/svg"
   xmlns="http://www.w3.org/2000/svg"
   xmlns:sodipodi="http://sodipodi.sourceforge.net/DTD/sodipodi-0.dtd"
   xmlns:inkscape="http://www.inkscape.org/namespaces/inkscape"
   width="322.68335mm"
   height="322.68335mm"
   viewBox="0 0 322.68335 322.68335"
   version="1.1"
   id="svg1045"
   inkscape:version="0.92.5 (2060ec1f9f, 2020-04-08)"
   sodipodi:docname="external.svg">
  <defs
     id="defs1039" />
  <sodipodi:namedview
     id="base"
     pagecolor="#ffffff"
     bordercolor="#666666"
     borderopacity="1.0"
     inkscape:pageopacity="0.0"
     inkscape:pageshadow="2"
     inkscape:zoom="0.98994949"
     inkscape:cx="-262.70463"
     inkscape:cy="252.68744"
     inkscape:document-units="mm"
     inkscape:current-layer="layer1"
     showgrid="false"
     fit-margin-top="10"
     fit-margin-bottom="10"
     fit-margin-right="10"
     fit-margin-left="10"
     inkscape:window-width="1920"
     inkscape:window-height="997"
     inkscape:window-x="0"
     inkscape:window-y="28"
     inkscape:window-maximized="1"
     inkscape:snap-bbox="true"
     inkscape:snap-center="true" />
  <metadata
     id="metadata1042">
    <rdf:RDF>
      <cc:Work
         rdf:about="">
        <dc:format>image/svg+xml</dc:format>
        <dc:type
           rdf:resource="http://purl.org/dc/dcmitype/StillImage" />
        <dc:title></dc:title>
      </cc:Work>
    </rdf:RDF>
  </metadata>
  <g
     inkscape:label="Layer 1"
     inkscape:groupmode="layer"
     id="layer1"
     transform="translate(-48.170534,136.59793)">
    <g
       transform="matrix(4,0,0,4,-567.92473,-978.27925)"
       id="g1864">
      <rect
         y="213.71408"
         x="157.31757"
         height="74.083336"
         width="74.083336"
         id="rect815-2-8-1-2"
         style="opacity:1;fill:#b3b3b3;fill-opacity:1;stroke:#b3b3b3;stroke-width:1.58749998;stroke-linejoin:miter;stroke-miterlimit:4;stroke-dasharray:none;stroke-opacity:1" />
      <g
         id="flowRoot907-4-2"
         style="font-style:normal;font-variant:normal;font-weight:normal;font-stretch:normal;font-size:8px;line-height:1.25;font-family:'Noto Sans';-inkscape-font-specification:'Noto Sans';letter-spacing:0px;word-spacing:0px;fill:#ffffff;fill-opacity:1;stroke:#ffffff"
         transform="matrix(0.26458333,0,0,0.26458333,171.26452,83.442572)"
         aria-label="🌎︎">
        <path
           inkscape:connector-curvature="0"
           id="path965"
           style="font-style:normal;font-variant:normal;font-weight:900;font-stretch:normal;font-size:192px;font-family:'Noto Sans Symbols';-inkscape-font-specification:'Noto Sans Symbols Heavy';letter-spacing:-18.79000092px;fill:#ffffff;stroke:#ffffff"
           d="m 87.333984,545.78665 q 11.90625,0 22.968746,3.09375 11.0625,3.09375 20.625,8.71875 9.65625,5.625 17.53125,13.59375 7.875,7.875 13.5,17.53125 5.625,9.5625 8.71875,20.625 3.09375,11.0625 3.09375,23.0625 0,12 -3.09375,23.0625 -3.09375,10.96875 -8.71875,20.625 -5.625,9.65625 -13.5,17.53125 -7.875,7.875 -17.53125,13.5 -9.5625,5.625 -20.625,8.71875 -11.062496,3.09375 -22.968746,3.09375 -11.90625,0 -22.96875,-3.09375 -11.0625,-3.09375 -20.71875,-8.71875 -9.5625,-5.625 -17.53125,-13.5 -7.875,-7.875 -13.5,-17.53125 Q 6.9902344,666.4429 3.8964844,655.3804 0.80273438,644.3179 0.80273438,632.41165 q 0,-12 3.09375002,-23.0625 3.09375,-11.0625 8.7187496,-20.625 5.625,-9.65625 13.5,-17.53125 7.96875,-7.96875 17.53125,-13.59375 9.65625,-5.625 20.71875,-8.71875 11.0625,-3.09375 22.96875,-3.09375 z m 20.249996,160.5 q 12.09375,-3.28125 22.40625,-10.21875 10.40625,-7.03125 17.90625,-16.6875 7.5,-9.75 11.71875,-21.75 4.3125,-12 4.3125,-25.21875 0,-10.59375 -2.8125,-20.34375 -2.71875,-9.84375 -7.6875,-18.375 -4.96875,-8.53125 -12,-15.5625 -6.9375,-7.03125 -15.46875,-12 -8.53125,-4.96875 -18.375,-7.6875 -9.749996,-2.8125 -20.249996,-2.8125 -8.8125,0 -17.15625,2.0625 -8.34375,1.96875 -15.84375,5.53125 1.03125,0.28125 2.0625,0.5625 1.125,0.1875 2.15625,0.1875 h 0.65625 q 1.96875,-0.28125 3.1875,-0.65625 1.21875,-0.375 1.96875,-0.75 0.84375,-0.375 1.3125,-0.9375 3.75,-0.75 6.75,-0.75 4.59375,0 7.40625,1.21875 2.90625,1.21875 2.90625,2.625 0,0.46875 -0.28125,0.84375 -0.84375,1.03125 -2.34375,1.78125 -1.5,0.65625 -3.28125,1.03125 -1.78125,0.375 -3.75,0.5625 -1.875,0.1875 -3.46875,0.28125 -1.6875,0.1875 -3,0.46875 -1.21875,0.28125 -2.25,1.03125 -1.03125,0.65625 -1.875,1.875 -0.84375,1.21875 -1.59375,3.1875 -0.1875,0.28125 -0.1875,0.65625 0,0.28125 0,0.46875 0,1.5 1.5,2.15625 1.59375,0.5625 3.65625,0.5625 2.15625,0 4.03125,-0.46875 1.96875,-0.5625 2.4375,-1.125 0.65625,-0.46875 1.59375,-0.46875 1.5,0 3.28125,0.9375 1.78125,0.84375 2.53125,2.53125 0.5625,1.59375 2.15625,2.625 1.59375,1.03125 2.8125,1.03125 1.21875,0 1.21875,-0.9375 0,-0.5625 -0.09375,-0.9375 -0.09375,-0.46875 -0.09375,-0.9375 0,-0.46875 0.28125,-0.9375 0.28125,-0.46875 1.3125,-1.03125 1.21875,-0.75 1.21875,-2.0625 0,-1.03125 -0.65625,-2.25 -0.5625,-1.3125 -1.21875,-2.90625 -0.28125,-0.65625 -0.28125,-1.125 0,-0.84375 0.75,-1.03125 0.84375,-0.28125 1.96875,-0.28125 l 4.40625,0.1875 q 1.21875,0.1875 2.0625,1.125 0.9375,0.9375 1.59375,2.0625 0.75,1.03125 1.3125,1.96875 0.5625,0.84375 1.03125,0.84375 h 0.09375 q 0.375,0 0.562496,-0.28125 0.1875,-0.375 0.375,-0.75 0.28125,-0.46875 0.75,-0.84375 0.46875,-0.375 1.3125,-0.375 0.9375,0 2.4375,0.5625 1.5,0.46875 3.9375,1.875 2.625,1.59375 3.65625,2.8125 1.125,1.125 1.125,2.15625 0,0.9375 -0.75,1.6875 -0.75,0.65625 -1.96875,1.21875 -1.125,0.5625 -2.53125,0.9375 -1.3125,0.28125 -2.53125,0.46875 -2.25,0.28125 -3.9375,1.125 -1.59375,0.84375 -1.59375,1.59375 0,0.9375 2.8125,0.9375 1.3125,0 1.78125,0.1875 0.46875,0.1875 0.46875,0.46875 0,0.375 -0.5625,0.75 -0.46875,0.375 -1.03125,0.75 -0.75,0.375 -1.59375,0.84375 -1.96875,0.28125 -3.281246,0.84375 -1.3125,0.5625 -1.3125,1.6875 0,0.46875 0.46875,1.40625 -0.9375,0 -2.0625,0.28125 -1.125,0.28125 -2.25,0.75 -1.03125,0.46875 -2.0625,1.03125 -0.9375,0.46875 -1.5,0.9375 0,0.5625 0,0.75 0.09375,0.1875 0.09375,0.46875 0,0.1875 0,0.375 0,0.1875 -0.09375,0.65625 -0.1875,0.46875 -0.5625,0.46875 0,-0.65625 0,-0.9375 0.09375,-0.375 0.09375,-0.5625 0.09375,-0.28125 0.09375,-0.5625 0.09375,-0.375 0.1875,-0.9375 l -0.1875,0.1875 q -0.09375,0 -0.09375,-0.375 l -0.46875,0.46875 q 0,0.28125 -0.1875,0.28125 -0.1875,0 -0.28125,-0.28125 0,0.46875 0.09375,0.9375 0.1875,0.375 0.375,0.75 -0.1875,-0.1875 -0.5625,-0.375 -0.375,-0.1875 -0.5625,-0.1875 0.09375,0.0937 0.09375,0.28125 0,0.0937 -0.09375,0.1875 0.46875,0.46875 0.5625,0.65625 0.1875,0.0937 0.1875,0.1875 0,0.1875 -0.09375,0.375 0.5625,0.1875 0.65625,0.46875 0.1875,0.1875 0.1875,0.46875 0.09375,0.1875 0.09375,0.375 0.09375,0.1875 0.375,0.1875 -0.46875,0.5625 -0.9375,0.5625 -0.1875,0 -0.375,0 -0.1875,-0.0937 -0.46875,-0.0937 v 0.75 q 0.09375,-0.0937 0.375,-0.0937 0.09375,0 0.1875,0.0937 0.09375,0 0.1875,0 h 0.1875 l -0.1875,0.1875 q -2.15625,0.65625 -3.375,1.3125 -1.21875,0.65625 -1.875,1.40625 -0.65625,0.75 -0.84375,1.6875 -0.1875,0.84375 -0.1875,1.96875 0,0.65625 0.09375,1.40625 0.09375,0.65625 0.09375,1.5 0,0.65625 -0.09375,1.5 0,0.84375 -0.09375,1.3125 -1.3125,-3.65625 -3.75,-5.15625 -2.4375,-1.5 -5.53125,-1.5 -1.875,0 -3.65625,0.375 0.1875,0.0937 0.375,0.0937 l 0.375,-0.0937 q 0.1875,0.0937 0.375,0.0937 h 0.1875 l 0.09375,-0.0937 q 0,0.1875 -0.09375,0.375 -0.09375,0.0937 -0.09375,0.1875 0.375,0.375 0.65625,0.5625 -2.4375,-0.5625 -4.6875,-0.5625 -2.0625,0 -3.9375,0.5625 -1.78125,0.5625 -3.09375,2.0625 -0.1875,1.125 -0.28125,2.0625 -0.09375,0.9375 -0.09375,1.78125 0,3.5625 1.40625,4.875 1.5,1.3125 3.84375,1.3125 2.15625,0 4.6875,-0.75 2.53125,-0.84375 5.15625,-1.875 v 0.1875 q -0.28125,1.21875 -0.9375,1.875 h 0.28125 v 0.1875 h -0.28125 q -0.1875,0.5625 -0.375,0.84375 -0.1875,0.1875 -0.5625,0.5625 l -0.09375,0.375 q -0.09375,0.46875 -0.1875,1.125 -0.09375,0.65625 -0.28125,1.3125 -0.1875,0.5625 -0.46875,0.84375 l 0.1875,0.0937 q 0.09375,0.0937 0.75,0.28125 0.75,-0.1875 1.125,-0.375 0.375,-0.28125 0.9375,-0.28125 2.15625,0 3.28125,1.125 1.125,1.03125 2.15625,2.625 1.03125,1.5 2.34375,3.09375 1.40625,1.59375 4.125,2.53125 -0.9375,0.46875 -1.40625,0.46875 -0.46875,-0.0937 -1.125,0.84375 -0.46875,0 -0.46875,0.28125 -1.21875,-0.5625 -1.96875,-0.84375 -0.75,-0.375 -1.40625,-0.65625 -0.65625,-0.375 -1.40625,-0.84375 -0.75,-0.46875 -1.875,-1.40625 0.09375,0.1875 0.1875,0.375 0.1875,0.1875 0.1875,0.375 0,0.1875 -0.09375,0.1875 -0.09375,-0.0937 -0.1875,-0.0937 -0.46875,-1.21875 -1.59375,-2.71875 -1.125,-1.5 -1.5,-2.25 -1.03125,0 -2.4375,-0.0937 -1.40625,-0.0937 -2.4375,-0.5625 -3.375,-1.40625 -6.28125,-2.4375 -2.8125,-1.125 -5.4375,-2.34375 -2.625,-1.21875 -5.15625,-2.8125 -2.4375,-1.6875 -5.0625,-4.40625 -2.0625,-2.15625 -4.6875,-4.875 -2.53125,-2.8125 -6.375,-5.53125 0.9375,1.875 1.875,3.375 0.9375,1.40625 1.875,2.71875 0.9375,1.21875 1.875,2.34375 1.03125,1.125 2.0625,2.4375 l -0.75,0.46875 q -2.0625,-1.78125 -3.65625,-3.09375 -1.59375,-1.40625 -3.46875,-3.1875 0.09375,-0.1875 0.09375,-0.65625 0,-1.3125 -1.21875,-2.71875 -1.21875,-1.5 -2.90625,-3 -1.59375,-1.59375 -3.375,-3.09375 -1.6875,-1.5 -2.71875,-3 l 0.375,0.1875 q 0.1875,0 0.28125,-0.375 -1.6875,-0.84375 -2.4375,-2.4375 -0.75,-1.6875 -0.75,-3.46875 0,-2.34375 1.125,-4.21875 -0.1875,-0.1875 -0.5625,-0.46875 -0.28125,-0.375 -0.5625,-0.75 -6.1875,9.28125 -9.46875,19.96875 -3.28125,10.6875 -3.28125,22.6875 0,10.59375 2.71875,20.34375 2.8125,9.75 7.78125,18.28125 4.96875,8.53125 11.90625,15.5625 7.03125,6.9375 15.5625,12 8.53125,4.96875 18.28125,7.6875 9.75,2.71875 20.34375,2.71875 h 2.34375 q -0.375,-1.40625 -0.375,-3.28125 0,-3.5625 1.03125,-7.59375 1.03125,-4.03125 1.78125,-7.59375 0.65625,-3 0.65625,-6.5625 0,-4.3125 -0.9375,-8.25 -0.9375,-4.03125 -2.53125,-7.03125 -0.75,-1.5 -1.875,-3.09375 -1.03125,-1.59375 -2.0625,-3.28125 -0.9375,-1.6875 -1.6875,-3.375 -0.65625,-1.6875 -0.65625,-3.375 0,-1.03125 0.1875,-1.875 0.28125,-0.9375 0.9375,-1.875 -0.375,0 -0.75,-0.0937 -0.28125,-0.0937 -0.46875,-0.5625 0.75,-1.5 1.59375,-2.71875 0.9375,-1.21875 1.6875,-2.25 0.84375,-1.03125 1.3125,-2.0625 0.5625,-1.03125 0.5625,-2.34375 0,-1.59375 -0.9375,-3.5625 0.46875,0.1875 0.84375,0.28125 0.46875,0 0.9375,0.1875 l 0.28125,-0.84375 q 0.375,-0.9375 0.75,-1.6875 0.375,-0.75 1.03125,-1.3125 0.75,-0.5625 2.0625,-0.9375 1.3125,-0.46875 3.46875,-0.75 0.65625,-0.0937 1.21875,-0.0937 0.65625,-0.0937 1.21875,-0.0937 1.968746,0 3.562496,0.375 1.59375,0.375 2.8125,0.84375 1.40625,0.5625 2.53125,1.21875 0.375,0.1875 0.5625,0.46875 0.1875,0.28125 0.375,0.46875 0.46875,0.28125 0.75,0.28125 0.375,0 0.375,0.375 0,0.1875 -0.0937,0.375 0,0.0937 -0.0937,0.375 0.84375,0.5625 1.3125,0.75 0.46875,0.0937 0.84375,0.28125 0.46875,0.1875 0.84375,0.5625 0.375,0.375 1.125,1.21875 0.84375,0 0.84375,0.1875 0.0937,0.1875 1.03125,0.9375 l 0.375,0.1875 h 0.28125 q 1.3125,0 3.84375,1.03125 2.625,0.9375 5.625,2.53125 3,1.59375 6.1875,3.65625 3.1875,2.0625 5.8125,4.21875 2.625,2.15625 4.21875,4.3125 1.6875,2.0625 1.6875,3.65625 0,2.0625 -2.90625,3 0.0937,0.5625 0.0937,1.125 0,0.5625 0,1.03125 0,3.65625 -1.3125,5.8125 -1.21875,2.0625 -3.1875,3.375 -1.96875,1.3125 -4.40625,2.25 -2.34375,0.9375 -4.59375,2.34375 0.0937,0.28125 0.0937,0.84375 0,1.3125 -0.9375,3.1875 -0.9375,1.78125 -2.34375,3.46875 -1.40625,1.6875 -3.09375,2.90625 -1.6875,1.125 -3.28125,1.125 -1.03125,0 -1.96875,-0.5625 -0.9375,-0.65625 -1.59375,-2.25 v 0.84375 l -0.28125,-0.0937 q 0.65625,0.9375 0.65625,2.25 0,1.3125 -0.5625,2.8125 -0.5625,1.5 -1.40625,3.1875 -0.84375,1.6875 -1.96875,3.46875 -1.03125,1.6875 -2.15625,3.375 -0.46875,0.84375 -1.03125,1.5 z m -25.593746,-86.4375 q 2.25,0 4.6875,1.03125 2.4375,1.03125 5.71875,2.34375 -1.59375,0.28125 -2.71875,0.28125 -1.875,0 -3.09375,-0.46875 -1.21875,-0.46875 -2.15625,-1.03125 -0.9375,-0.5625 -1.78125,-1.03125 -0.84375,-0.46875 -1.78125,-0.46875 -1.21875,0 -2.8125,0.9375 0,-0.1875 -0.65625,-0.1875 0.46875,-0.375 1.96875,-0.84375 1.5,-0.5625 2.625,-0.5625 z m 9.9375,5.71875 q 0.5625,-0.65625 0.75,-0.75 0.1875,-0.1875 0.28125,-0.28125 0.1875,-0.0937 0.1875,-0.1875 0.09375,-0.0937 0.375,-0.65625 1.59375,0 3.09375,0.375 1.59375,0.28125 3.1875,0.75 -2.4375,1.125 -4.78125,1.125 -1.6875,0 -3.09375,-0.375 z" />
      </g>
    </g>
  </g>
</svg>
