<?xml version="1.0" encoding="UTF-8" standalone="no"?>
<svg
   xmlns:dc="http://purl.org/dc/elements/1.1/"
   xmlns:cc="http://creativecommons.org/ns#"
   xmlns:rdf="http://www.w3.org/1999/02/22-rdf-syntax-ns#"
   xmlns:svg="http://www.w3.org/2000/svg"
   xmlns="http://www.w3.org/2000/svg"
   xmlns:sodipodi="http://sodipodi.sourceforge.net/DTD/sodipodi-0.dtd"
   xmlns:inkscape="http://www.inkscape.org/namespaces/inkscape"
   height="1536"
   viewBox="0 0 1536 1536"
   width="1536"
   version="1.1"
   id="svg4"
   sodipodi:docname="toc-grey.svg"
   inkscape:version="0.92.5 (2060ec1f9f, 2020-04-08)">
  <metadata
     id="metadata10">
    <rdf:RDF>
      <cc:Work
         rdf:about="">
        <dc:format>image/svg+xml</dc:format>
        <dc:type
           rdf:resource="http://purl.org/dc/dcmitype/StillImage" />
      </cc:Work>
    </rdf:RDF>
  </metadata>
  <defs
     id="defs8" />
  <sodipodi:namedview
     pagecolor="#ffffff"
     bordercolor="#666666"
     borderopacity="1"
     objecttolerance="10"
     gridtolerance="10"
     guidetolerance="10"
     inkscape:pageopacity="0"
     inkscape:pageshadow="2"
     inkscape:window-width="724"
     inkscape:window-height="480"
     id="namedview6"
     showgrid="false"
     inkscape:zoom="0.15364583"
     inkscape:cx="592.27118"
     inkscape:cy="767.99994"
     inkscape:window-x="0"
     inkscape:window-y="28"
     inkscape:window-maximized="0"
     inkscape:current-layer="svg4" />
  <path
     d="m120 0a120 120 0 0 0 -120 120 120 120 0 0 0 120 120 120 120 0 0 0 120-120 120 120 0 0 0 -120-120zm312 72c-26.592 0-48 21.408-48 48s21.408 48 48 48h672c26.592 0 48-21.408 48-48s-21.408-48-48-48h-672zm72 360a120 120 0 0 0 -120 120 120 120 0 0 0 120 120 120 120 0 0 0 120-120 120 120 0 0 0 -120-120zm312 72c-26.592 0-48 21.408-48 48s21.408 48 48 48h672c26.592 0 48-21.408 48-48s-21.408-48-48-48h-672zm-312 360a120 120 0 0 0 -120 120 120 120 0 0 0 120 120 120 120 0 0 0 120-120 120 120 0 0 0 -120-120zm312 72c-26.592 0-48 21.408-48 48s21.408 48 48 48h672c26.592 0 48-21.408 48-48s-21.408-48-48-48h-672zm-696 360a120 120 0 0 0 -120 120 120 120 0 0 0 120 120 120 120 0 0 0 120-120 120 120 0 0 0 -120-120zm312 72c-26.592 0-48 21.408-48 48s21.408 48 48 48h672c26.592 0 48-21.408 48-48s-21.408-48-48-48h-672z"
     id="path2"
     style="fill:#b3b3b3" />
</svg>
